<svg xmlns="http://www.w3.org/2000/svg" width="900" height="438" viewBox="0 0 900 438" role="img" aria-label="Santosh Kumaar — Machine Learning Engineer. B.Tech CSE @ SRM  ·  BS Computer Science @ IIT Madras  ·  Chennai, India. Contact: rsantoshkumaar2005@gmail.com   ·   linkedin.com/in/santosh7131. 102 commits  (past year).">
  <title>Santosh Kumaar — Machine Learning Engineer</title>
  <defs>
    <clipPath id="barClip"><rect x="32" y="364" width="836" height="10" rx="5"/></clipPath>
  </defs>
  <rect x="0.5" y="0.5" width="899" height="437" rx="14" fill="#ffffff" stroke="#d0d7de" stroke-width="1"/>
  <g><rect x="624" y="34" width="15" height="15" rx="3" fill="#0969da" opacity="0.5"/><rect x="645" y="34" width="15" height="15" rx="3" fill="#0969da" opacity="0.28"/><rect x="666" y="34" width="15" height="15" rx="3" fill="#0969da" opacity="0.1"/><rect x="687" y="34" width="15" height="15" rx="3" fill="#0969da" opacity="0.1"/><rect x="708" y="34" width="15" height="15" rx="3" fill="#0969da" opacity="0.5"/><rect x="729" y="34" width="15" height="15" rx="3" fill="#0969da" opacity="0.28"/><rect x="750" y="34" width="15" height="15" rx="3" fill="#0969da" opacity="0.1"/><rect x="771" y="34" width="15" height="15" rx="3" fill="#0969da" opacity="0.1"/><rect x="792" y="34" width="15" height="15" rx="3" fill="#0969da" opacity="0.5"/><rect x="813" y="34" width="15" height="15" rx="3" fill="#0969da" opacity="0.28"/><rect x="834" y="34" width="15" height="15" rx="3" fill="#0969da" opacity="0.1"/><rect x="855" y="34" width="15" height="15" rx="3" fill="#0969da" opacity="0.1"/><rect x="624" y="55" width="15" height="15" rx="3" fill="#0969da" opacity="0.1"/><rect x="645" y="55" width="15" height="15" rx="3" fill="#0969da" opacity="0.5"/><rect x="666" y="55" width="15" height="15" rx="3" fill="#0969da" opacity="0.28"/><rect x="687" y="55" width="15" height="15" rx="3" fill="#0969da" opacity="0.1"/><rect x="708" y="55" width="15" height="15" rx="3" fill="#0969da" opacity="0.1"/><rect x="729" y="55" width="15" height="15" rx="3" fill="#0969da" opacity="0.5"/><rect x="750" y="55" width="15" height="15" rx="3" fill="#0969da" opacity="0.28"/><rect x="771" y="55" width="15" height="15" rx="3" fill="#0969da" opacity="0.1"/><rect x="792" y="55" width="15" height="15" rx="3" fill="#0969da" opacity="0.1"/><rect x="813" y="55" width="15" height="15" rx="3" fill="#0969da" opacity="0.5"/><rect x="834" y="55" width="15" height="15" rx="3" fill="#0969da" opacity="0.28"/><rect x="855" y="55" width="15" height="15" rx="3" fill="#0969da" opacity="0.1"/><rect x="624" y="76" width="15" height="15" rx="3" fill="#0969da" opacity="0.1"/><rect x="645" y="76" width="15" height="15" rx="3" fill="#0969da" opacity="0.1"/><rect x="666" y="76" width="15" height="15" rx="3" fill="#0969da" opacity="0.5"/><rect x="687" y="76" width="15" height="15" rx="3" fill="#0969da" opacity="0.28"/><rect x="708" y="76" width="15" height="15" rx="3" fill="#0969da" opacity="0.1"/><rect x="729" y="76" width="15" height="15" rx="3" fill="#0969da" opacity="0.1"/><rect x="750" y="76" width="15" height="15" rx="3" fill="#0969da" opacity="0.5"/><rect x="771" y="76" width="15" height="15" rx="3" fill="#0969da" opacity="0.28"/><rect x="792" y="76" width="15" height="15" rx="3" fill="#0969da" opacity="0.1"/><rect x="813" y="76" width="15" height="15" rx="3" fill="#0969da" opacity="0.1"/><rect x="834" y="76" width="15" height="15" rx="3" fill="#0969da" opacity="0.5"/><rect x="855" y="76" width="15" height="15" rx="3" fill="#0969da" opacity="0.28"/><rect x="624" y="97" width="15" height="15" rx="3" fill="#0969da" opacity="0.28"/><rect x="645" y="97" width="15" height="15" rx="3" fill="#0969da" opacity="0.1"/><rect x="666" y="97" width="15" height="15" rx="3" fill="#0969da" opacity="0.1"/><rect x="687" y="97" width="15" height="15" rx="3" fill="#0969da" opacity="0.5"/><rect x="708" y="97" width="15" height="15" rx="3" fill="#0969da" opacity="0.28"/><rect x="729" y="97" width="15" height="15" rx="3" fill="#0969da" opacity="0.1"/><rect x="750" y="97" width="15" height="15" rx="3" fill="#0969da" opacity="0.1"/><rect x="771" y="97" width="15" height="15" rx="3" fill="#0969da" opacity="0.5"/><rect x="792" y="97" width="15" height="15" rx="3" fill="#0969da" opacity="0.28"/><rect x="813" y="97" width="15" height="15" rx="3" fill="#0969da" opacity="0.1"/><rect x="834" y="97" width="15" height="15" rx="3" fill="#0969da" opacity="0.1"/><rect x="855" y="97" width="15" height="15" rx="3" fill="#0969da" opacity="0.5"/><rect x="624" y="118" width="15" height="15" rx="3" fill="#0969da" opacity="0.5"/><rect x="645" y="118" width="15" height="15" rx="3" fill="#0969da" opacity="0.28"/><rect x="666" y="118" width="15" height="15" rx="3" fill="#0969da" opacity="0.1"/><rect x="687" y="118" width="15" height="15" rx="3" fill="#0969da" opacity="0.1"/><rect x="708" y="118" width="15" height="15" rx="3" fill="#0969da" opacity="0.5"/><rect x="729" y="118" width="15" height="15" rx="3" fill="#0969da" opacity="0.28"/><rect x="750" y="118" width="15" height="15" rx="3" fill="#0969da" opacity="0.1"/><rect x="771" y="118" width="15" height="15" rx="3" fill="#0969da" opacity="0.1"/><rect x="792" y="118" width="15" height="15" rx="3" fill="#0969da" opacity="0.5"/><rect x="813" y="118" width="15" height="15" rx="3" fill="#0969da" opacity="0.28"/><rect x="834" y="118" width="15" height="15" rx="3" fill="#0969da" opacity="0.1"/><rect x="855" y="118" width="15" height="15" rx="3" fill="#0969da" opacity="0.1"/></g>

  <text x="44" y="72" font-family="ui-monospace,SFMono-Regular,'SF Mono',Menlo,Consolas,monospace" font-size="14" fill="#656d76">hi, i'm</text>
  <text x="42" y="128" font-family="-apple-system,BlinkMacSystemFont,'Segoe UI',Helvetica,Arial,sans-serif" font-size="54" font-weight="700" fill="#1f2328" letter-spacing="-1">Santosh Kumaar</text>
  <rect x="44" y="146" width="180" height="4" rx="2" fill="#0969da"/>
  <text x="44" y="182" font-family="ui-monospace,SFMono-Regular,'SF Mono',Menlo,Consolas,monospace" font-size="18" fill="#0969da">Machine Learning Engineer</text>
  <text x="44" y="208" font-family="-apple-system,BlinkMacSystemFont,'Segoe UI',Helvetica,Arial,sans-serif" font-size="13" fill="#656d76">B.Tech CSE @ SRM  ·  BS Computer Science @ IIT Madras  ·  Chennai, India</text>
  <text x="44" y="230" font-family="-apple-system,BlinkMacSystemFont,'Segoe UI',Helvetica,Arial,sans-serif" font-size="13" fill="#656d76">rsantoshkumaar2005@gmail.com   ·   linkedin.com/in/santosh7131</text>

    <g>
      <rect x="32" y="252" width="196" height="66" rx="10" fill="#f6f8fa" stroke="#d0d7de" stroke-width="1"/>
      <text x="48" y="277" font-family="-apple-system,BlinkMacSystemFont,'Segoe UI',Helvetica,Arial,sans-serif" font-size="11" fill="#656d76" letter-spacing="0.4">contributions (1y)</text>
      <text x="48" y="304" font-family="-apple-system,BlinkMacSystemFont,'Segoe UI',Helvetica,Arial,sans-serif" font-size="23" font-weight="600" fill="#1f2328">112</text>
    </g>
    <g>
      <rect x="240" y="252" width="196" height="66" rx="10" fill="#f6f8fa" stroke="#d0d7de" stroke-width="1"/>
      <text x="256" y="277" font-family="-apple-system,BlinkMacSystemFont,'Segoe UI',Helvetica,Arial,sans-serif" font-size="11" fill="#656d76" letter-spacing="0.4">public repos</text>
      <text x="256" y="304" font-family="-apple-system,BlinkMacSystemFont,'Segoe UI',Helvetica,Arial,sans-serif" font-size="23" font-weight="600" fill="#1f2328">22</text>
    </g>
    <g>
      <rect x="448" y="252" width="196" height="66" rx="10" fill="#f6f8fa" stroke="#d0d7de" stroke-width="1"/>
      <text x="464" y="277" font-family="-apple-system,BlinkMacSystemFont,'Segoe UI',Helvetica,Arial,sans-serif" font-size="11" fill="#656d76" letter-spacing="0.4">stars earned</text>
      <text x="464" y="304" font-family="-apple-system,BlinkMacSystemFont,'Segoe UI',Helvetica,Arial,sans-serif" font-size="23" font-weight="600" fill="#1f2328">3</text>
    </g>
    <g>
      <rect x="656" y="252" width="196" height="66" rx="10" fill="#f6f8fa" stroke="#d0d7de" stroke-width="1"/>
      <text x="672" y="277" font-family="-apple-system,BlinkMacSystemFont,'Segoe UI',Helvetica,Arial,sans-serif" font-size="11" fill="#656d76" letter-spacing="0.4">followers</text>
      <text x="672" y="304" font-family="-apple-system,BlinkMacSystemFont,'Segoe UI',Helvetica,Arial,sans-serif" font-size="23" font-weight="600" fill="#1f2328">9</text>
    </g>
  <text x="32" y="350" font-family="-apple-system,BlinkMacSystemFont,'Segoe UI',Helvetica,Arial,sans-serif" font-size="11" fill="#656d76" letter-spacing="0.4">language mix</text>
  <rect x="32" y="364" width="836" height="10" rx="5" fill="#eaeef2"/>
  <g clip-path="url(#barClip)">
<rect x="32" y="364" width="366.72" height="10" fill="#3178c6"/><rect x="398.72" y="364" width="204.75" height="10" fill="#f1e05a"/><rect x="603.47" y="364" width="133.85" height="10" fill="#3572A5"/><rect x="737.32" y="364" width="81.54" height="10" fill="#e34c26"/><rect x="818.85" y="364" width="48.73" height="10" fill="#663399"/>
  </g>

    <g>
      <circle cx="37" cy="404" r="5" fill="#3178c6"/>
      <text x="49" y="408" font-family="-apple-system,BlinkMacSystemFont,'Segoe UI',Helvetica,Arial,sans-serif" font-size="12.5" fill="#656d76">TypeScript 43.9%</text>
    </g>
    <g>
      <circle cx="177.4" cy="404" r="5" fill="#f1e05a"/>
      <text x="189.4" y="408" font-family="-apple-system,BlinkMacSystemFont,'Segoe UI',Helvetica,Arial,sans-serif" font-size="12.5" fill="#656d76">JavaScript 24.5%</text>
    </g>
    <g>
      <circle cx="317.8" cy="404" r="5" fill="#3572A5"/>
      <text x="329.8" y="408" font-family="-apple-system,BlinkMacSystemFont,'Segoe UI',Helvetica,Arial,sans-serif" font-size="12.5" fill="#656d76">Python 16%</text>
    </g>
    <g>
      <circle cx="416.8" cy="404" r="5" fill="#e34c26"/>
      <text x="428.8" y="408" font-family="-apple-system,BlinkMacSystemFont,'Segoe UI',Helvetica,Arial,sans-serif" font-size="12.5" fill="#656d76">HTML 9.8%</text>
    </g>
    <g>
      <circle cx="508.9" cy="404" r="5" fill="#663399"/>
      <text x="520.9" y="408" font-family="-apple-system,BlinkMacSystemFont,'Segoe UI',Helvetica,Arial,sans-serif" font-size="12.5" fill="#656d76">CSS 5.8%</text>
    </g>
</svg>
