<svg xmlns="http://www.w3.org/2000/svg" width="900" height="438" viewBox="0 0 900 438" role="img" aria-label="Santosh Kumaar — Machine Learning Engineer. B.Tech CSE @ SRM  ·  BS Computer Science @ IIT Madras  ·  Chennai, India. Contact: rsantoshkumaar2005@gmail.com   ·   linkedin.com/in/santosh7131. 111 commits  (past year).">
  <title>Santosh Kumaar — Machine Learning Engineer</title>
  <defs>
    <clipPath id="barClip"><rect x="32" y="364" width="836" height="10" rx="5"/></clipPath>
  </defs>
  <rect x="0.5" y="0.5" width="899" height="437" rx="14" fill="#0d1117" stroke="#30363d" stroke-width="1"/>
  <g><rect x="624" y="34" width="15" height="15" rx="3" fill="#58a6ff" opacity="0.5"/><rect x="645" y="34" width="15" height="15" rx="3" fill="#58a6ff" opacity="0.28"/><rect x="666" y="34" width="15" height="15" rx="3" fill="#58a6ff" opacity="0.1"/><rect x="687" y="34" width="15" height="15" rx="3" fill="#58a6ff" opacity="0.1"/><rect x="708" y="34" width="15" height="15" rx="3" fill="#58a6ff" opacity="0.5"/><rect x="729" y="34" width="15" height="15" rx="3" fill="#58a6ff" opacity="0.28"/><rect x="750" y="34" width="15" height="15" rx="3" fill="#58a6ff" opacity="0.1"/><rect x="771" y="34" width="15" height="15" rx="3" fill="#58a6ff" opacity="0.1"/><rect x="792" y="34" width="15" height="15" rx="3" fill="#58a6ff" opacity="0.5"/><rect x="813" y="34" width="15" height="15" rx="3" fill="#58a6ff" opacity="0.28"/><rect x="834" y="34" width="15" height="15" rx="3" fill="#58a6ff" opacity="0.1"/><rect x="855" y="34" width="15" height="15" rx="3" fill="#58a6ff" opacity="0.1"/><rect x="624" y="55" width="15" height="15" rx="3" fill="#58a6ff" opacity="0.1"/><rect x="645" y="55" width="15" height="15" rx="3" fill="#58a6ff" opacity="0.5"/><rect x="666" y="55" width="15" height="15" rx="3" fill="#58a6ff" opacity="0.28"/><rect x="687" y="55" width="15" height="15" rx="3" fill="#58a6ff" opacity="0.1"/><rect x="708" y="55" width="15" height="15" rx="3" fill="#58a6ff" opacity="0.1"/><rect x="729" y="55" width="15" height="15" rx="3" fill="#58a6ff" opacity="0.5"/><rect x="750" y="55" width="15" height="15" rx="3" fill="#58a6ff" opacity="0.28"/><rect x="771" y="55" width="15" height="15" rx="3" fill="#58a6ff" opacity="0.1"/><rect x="792" y="55" width="15" height="15" rx="3" fill="#58a6ff" opacity="0.1"/><rect x="813" y="55" width="15" height="15" rx="3" fill="#58a6ff" opacity="0.5"/><rect x="834" y="55" width="15" height="15" rx="3" fill="#58a6ff" opacity="0.28"/><rect x="855" y="55" width="15" height="15" rx="3" fill="#58a6ff" opacity="0.1"/><rect x="624" y="76" width="15" height="15" rx="3" fill="#58a6ff" opacity="0.1"/><rect x="645" y="76" width="15" height="15" rx="3" fill="#58a6ff" opacity="0.1"/><rect x="666" y="76" width="15" height="15" rx="3" fill="#58a6ff" opacity="0.5"/><rect x="687" y="76" width="15" height="15" rx="3" fill="#58a6ff" opacity="0.28"/><rect x="708" y="76" width="15" height="15" rx="3" fill="#58a6ff" opacity="0.1"/><rect x="729" y="76" width="15" height="15" rx="3" fill="#58a6ff" opacity="0.1"/><rect x="750" y="76" width="15" height="15" rx="3" fill="#58a6ff" opacity="0.5"/><rect x="771" y="76" width="15" height="15" rx="3" fill="#58a6ff" opacity="0.28"/><rect x="792" y="76" width="15" height="15" rx="3" fill="#58a6ff" opacity="0.1"/><rect x="813" y="76" width="15" height="15" rx="3" fill="#58a6ff" opacity="0.1"/><rect x="834" y="76" width="15" height="15" rx="3" fill="#58a6ff" opacity="0.5"/><rect x="855" y="76" width="15" height="15" rx="3" fill="#58a6ff" opacity="0.28"/><rect x="624" y="97" width="15" height="15" rx="3" fill="#58a6ff" opacity="0.28"/><rect x="645" y="97" width="15" height="15" rx="3" fill="#58a6ff" opacity="0.1"/><rect x="666" y="97" width="15" height="15" rx="3" fill="#58a6ff" opacity="0.1"/><rect x="687" y="97" width="15" height="15" rx="3" fill="#58a6ff" opacity="0.5"/><rect x="708" y="97" width="15" height="15" rx="3" fill="#58a6ff" opacity="0.28"/><rect x="729" y="97" width="15" height="15" rx="3" fill="#58a6ff" opacity="0.1"/><rect x="750" y="97" width="15" height="15" rx="3" fill="#58a6ff" opacity="0.1"/><rect x="771" y="97" width="15" height="15" rx="3" fill="#58a6ff" opacity="0.5"/><rect x="792" y="97" width="15" height="15" rx="3" fill="#58a6ff" opacity="0.28"/><rect x="813" y="97" width="15" height="15" rx="3" fill="#58a6ff" opacity="0.1"/><rect x="834" y="97" width="15" height="15" rx="3" fill="#58a6ff" opacity="0.1"/><rect x="855" y="97" width="15" height="15" rx="3" fill="#58a6ff" opacity="0.5"/><rect x="624" y="118" width="15" height="15" rx="3" fill="#58a6ff" opacity="0.5"/><rect x="645" y="118" width="15" height="15" rx="3" fill="#58a6ff" opacity="0.28"/><rect x="666" y="118" width="15" height="15" rx="3" fill="#58a6ff" opacity="0.1"/><rect x="687" y="118" width="15" height="15" rx="3" fill="#58a6ff" opacity="0.1"/><rect x="708" y="118" width="15" height="15" rx="3" fill="#58a6ff" opacity="0.5"/><rect x="729" y="118" width="15" height="15" rx="3" fill="#58a6ff" opacity="0.28"/><rect x="750" y="118" width="15" height="15" rx="3" fill="#58a6ff" opacity="0.1"/><rect x="771" y="118" width="15" height="15" rx="3" fill="#58a6ff" opacity="0.1"/><rect x="792" y="118" width="15" height="15" rx="3" fill="#58a6ff" opacity="0.5"/><rect x="813" y="118" width="15" height="15" rx="3" fill="#58a6ff" opacity="0.28"/><rect x="834" y="118" width="15" height="15" rx="3" fill="#58a6ff" opacity="0.1"/><rect x="855" y="118" width="15" height="15" rx="3" fill="#58a6ff" opacity="0.1"/></g>

  <text x="44" y="72" font-family="ui-monospace,SFMono-Regular,'SF Mono',Menlo,Consolas,monospace" font-size="14" fill="#8b949e">hi, i'm</text>
  <text x="42" y="128" font-family="-apple-system,BlinkMacSystemFont,'Segoe UI',Helvetica,Arial,sans-serif" font-size="54" font-weight="700" fill="#e6edf3" letter-spacing="-1">Santosh Kumaar</text>
  <rect x="44" y="146" width="180" height="4" rx="2" fill="#58a6ff"/>
  <text x="44" y="182" font-family="ui-monospace,SFMono-Regular,'SF Mono',Menlo,Consolas,monospace" font-size="18" fill="#58a6ff">Machine Learning Engineer</text>
  <text x="44" y="208" font-family="-apple-system,BlinkMacSystemFont,'Segoe UI',Helvetica,Arial,sans-serif" font-size="13" fill="#8b949e">B.Tech CSE @ SRM  ·  BS Computer Science @ IIT Madras  ·  Chennai, India</text>
  <text x="44" y="230" font-family="-apple-system,BlinkMacSystemFont,'Segoe UI',Helvetica,Arial,sans-serif" font-size="13" fill="#8b949e">rsantoshkumaar2005@gmail.com   ·   linkedin.com/in/santosh7131</text>

    <g>
      <rect x="32" y="252" width="196" height="66" rx="10" fill="#161b22" stroke="#30363d" stroke-width="1"/>
      <text x="48" y="277" font-family="-apple-system,BlinkMacSystemFont,'Segoe UI',Helvetica,Arial,sans-serif" font-size="11" fill="#8b949e" letter-spacing="0.4">contributions (1y)</text>
      <text x="48" y="304" font-family="-apple-system,BlinkMacSystemFont,'Segoe UI',Helvetica,Arial,sans-serif" font-size="23" font-weight="600" fill="#e6edf3">122</text>
    </g>
    <g>
      <rect x="240" y="252" width="196" height="66" rx="10" fill="#161b22" stroke="#30363d" stroke-width="1"/>
      <text x="256" y="277" font-family="-apple-system,BlinkMacSystemFont,'Segoe UI',Helvetica,Arial,sans-serif" font-size="11" fill="#8b949e" letter-spacing="0.4">public repos</text>
      <text x="256" y="304" font-family="-apple-system,BlinkMacSystemFont,'Segoe UI',Helvetica,Arial,sans-serif" font-size="23" font-weight="600" fill="#e6edf3">21</text>
    </g>
    <g>
      <rect x="448" y="252" width="196" height="66" rx="10" fill="#161b22" stroke="#30363d" stroke-width="1"/>
      <text x="464" y="277" font-family="-apple-system,BlinkMacSystemFont,'Segoe UI',Helvetica,Arial,sans-serif" font-size="11" fill="#8b949e" letter-spacing="0.4">stars earned</text>
      <text x="464" y="304" font-family="-apple-system,BlinkMacSystemFont,'Segoe UI',Helvetica,Arial,sans-serif" font-size="23" font-weight="600" fill="#e6edf3">3</text>
    </g>
    <g>
      <rect x="656" y="252" width="196" height="66" rx="10" fill="#161b22" stroke="#30363d" stroke-width="1"/>
      <text x="672" y="277" font-family="-apple-system,BlinkMacSystemFont,'Segoe UI',Helvetica,Arial,sans-serif" font-size="11" fill="#8b949e" letter-spacing="0.4">followers</text>
      <text x="672" y="304" font-family="-apple-system,BlinkMacSystemFont,'Segoe UI',Helvetica,Arial,sans-serif" font-size="23" font-weight="600" fill="#e6edf3">9</text>
    </g>
  <text x="32" y="350" font-family="-apple-system,BlinkMacSystemFont,'Segoe UI',Helvetica,Arial,sans-serif" font-size="11" fill="#8b949e" letter-spacing="0.4">language mix</text>
  <rect x="32" y="364" width="836" height="10" rx="5" fill="#21262d"/>
  <g clip-path="url(#barClip)">
<rect x="32" y="364" width="334.8" height="10" fill="#3178c6"/><rect x="366.8" y="364" width="195.69" height="10" fill="#3572A5"/><rect x="562.49" y="364" width="186.05" height="10" fill="#f1e05a"/><rect x="748.54" y="364" width="74.36" height="10" fill="#e34c26"/><rect x="822.89" y="364" width="44.41" height="10" fill="#663399"/><rect x="867.3" y="364" width="2" height="10" fill="#8b949e"/>
  </g>

    <g>
      <circle cx="37" cy="404" r="5" fill="#3178c6"/>
      <text x="49" y="408" font-family="-apple-system,BlinkMacSystemFont,'Segoe UI',Helvetica,Arial,sans-serif" font-size="12.5" fill="#8b949e">TypeScript 40%</text>
    </g>
    <g>
      <circle cx="163.60000000000002" cy="404" r="5" fill="#3572A5"/>
      <text x="175.60000000000002" y="408" font-family="-apple-system,BlinkMacSystemFont,'Segoe UI',Helvetica,Arial,sans-serif" font-size="12.5" fill="#8b949e">Python 23.4%</text>
    </g>
    <g>
      <circle cx="276.40000000000003" cy="404" r="5" fill="#f1e05a"/>
      <text x="288.40000000000003" y="408" font-family="-apple-system,BlinkMacSystemFont,'Segoe UI',Helvetica,Arial,sans-serif" font-size="12.5" fill="#8b949e">JavaScript 22.3%</text>
    </g>
    <g>
      <circle cx="416.80000000000007" cy="404" r="5" fill="#e34c26"/>
      <text x="428.80000000000007" y="408" font-family="-apple-system,BlinkMacSystemFont,'Segoe UI',Helvetica,Arial,sans-serif" font-size="12.5" fill="#8b949e">HTML 8.9%</text>
    </g>
    <g>
      <circle cx="508.9000000000001" cy="404" r="5" fill="#663399"/>
      <text x="520.9000000000001" y="408" font-family="-apple-system,BlinkMacSystemFont,'Segoe UI',Helvetica,Arial,sans-serif" font-size="12.5" fill="#8b949e">CSS 5.3%</text>
    </g>
</svg>
